<?xml version="1.0" encoding="utf-8"?>
<!-- Generator: Adobe Illustrator 27.6.1, SVG Export Plug-In . SVG Version: 6.00 Build 0)  -->
<svg version="1.0" id="katman_1" xmlns="http://www.w3.org/2000/svg" xmlns:xlink="http://www.w3.org/1999/xlink" x="0px" y="0px"
	 viewBox="0 0 888 327" style="enable-background:new 0 0 888 327;" xml:space="preserve">
<style type="text/css">
	.st0{fill:#FFFFFF;}
	.st1{fill:#94A6C3;}
	.st2{fill:#1B314F;}
	.st3{fill:#FFD923;}
	.st4{fill:#D82122;}
</style>
<g>
	<g>
		<path class="st0" d="M347.9,94.1h33.5v133.9h33.5V60.6h-33.5C363,60.6,347.9,75.6,347.9,94.1z"/>
		<path class="st0" d="M448.3,227.9h33.5V161c0-18.4-15.1-33.5-33.5-33.5V227.9z"/>
		<path class="st0" d="M515.3,127.5v100.4h33.5V161h33.5v33.5c0,18.4,15.1,33.5,33.5,33.5V161c0-18.4-15.1-33.5-33.5-33.5H515.3z"/>
		<path class="st0" d="M816.5,127.5h-33.5V94.1c0-18.4-15.1-33.5-33.5-33.5v133.9h-66.9V161h33.5v-33.5h-33.5
			c-18.4,0-33.5,15.1-33.5,33.5v33.5c0,18.4,15.1,33.5,33.5,33.5h100.4V161h33.5v33.5c0,18.4,15.1,33.5,33.5,33.5V161
			C850,142.6,834.9,127.5,816.5,127.5z"/>
		<path class="st0" d="M448.3,94.1h33.5c0-18.4-15.1-33.5-33.5-33.5V94.1z"/>
	</g>
	<g>
		<path class="st0" d="M395.2,284.5h-13.9v-22.7h13.5v3.7h-9.4v5.6h8.4v3.7h-8.4v5.9h9.8V284.5z"/>
		<path class="st0" d="M456.1,261.8h4.8l-7.9,11.1l8.2,11.6h-4.8l-6.1-8.5l-6,8.5h-4.8l8.2-11.6l-7.8-11.1h4.8l5.7,8.2L456.1,261.8z
			"/>
		<path class="st0" d="M521.5,279.3l1.6,3c-0.7,0.8-1.8,1.4-3.2,1.8c-1.4,0.5-2.8,0.7-4.3,0.7c-3.6,0-6.5-1.1-8.7-3.2
			c-2.2-2.1-3.3-5-3.3-8.5c0-3.4,1.1-6.2,3.2-8.4c2.1-2.2,5-3.3,8.8-3.3c3,0,5.4,0.8,7.1,2.3l-1.8,3c-1.6-1-3.3-1.5-5.3-1.5
			c-2.2,0-4.1,0.7-5.5,2.2c-1.4,1.4-2.1,3.4-2.1,5.8c0,2.4,0.7,4.3,2.2,5.8c1.5,1.5,3.5,2.2,5.8,2.2
			C518,281.1,519.9,280.5,521.5,279.3z"/>
		<path class="st0" d="M587.9,284.5h-4.1v-9.7h-10.7v9.7H569v-22.7h4.1v9.3h10.7v-9.3h4.1V284.5z"/>
		<path class="st0" d="M637.3,284.5h-4.1l9.9-22.8h3.6l9.9,22.8h-4.4l-2.4-5.8h-10L637.3,284.5z M648.1,275l-3.4-8.1l-3.4,8.1H648.1
			z"/>
		<path class="st0" d="M721.8,261.8v22.7h-3.3l-12.9-15.7v15.7h-3.8v-22.7h3.3l12.9,15.8v-15.8H721.8z"/>
		<path class="st0" d="M785.4,276h-5.7v-3.7h9.5v9.4c-1,1-2.3,1.8-4,2.3c-1.7,0.6-3.3,0.8-4.7,0.8c-3.8,0-6.8-1.1-9-3.2
			c-2.2-2.1-3.2-4.9-3.2-8.5c0-3.3,1.1-6.1,3.2-8.3c2.1-2.2,5-3.4,8.5-3.4c3,0,5.5,0.8,7.5,2.3l-1.7,3.2c-0.6-0.5-1.4-1-2.3-1.3
			c-1-0.3-1.9-0.5-3-0.5c-2.3,0-4.2,0.7-5.7,2.1c-1.4,1.4-2.2,3.4-2.2,5.8c0,2.4,0.7,4.3,2.2,5.8c1.4,1.4,3.3,2.2,5.8,2.2
			c0.8,0,1.8-0.2,2.7-0.5c1-0.3,1.7-0.7,2.1-1.1V276z"/>
		<path class="st0" d="M850,284.5h-13.9v-22.7h13.5v3.7h-9.4v5.6h8.4v3.7h-8.4v5.9h9.8V284.5z"/>
	</g>
</g>
<path class="st0" d="M90.9,192l7.8-58.8L30.8,86l62,21l14.6-22.5l53.5-33.2l117.9,64.9l6.1,99.1l-52.5,73l-41.5,6.3l21.5-39.3v-37.8
	l-15.6-29.5l-15.9-10.5l-24.4,25.1v26.6l-19,17.8l-24.2,2.9l-10.7,6.1L85,250.6l-7.3-26.4l13.2-18.5V192z"/>
<path class="st1" d="M199.2,85.6c-12.9-2.7-27.1-2-27.1-2s-4.6,21.5-33.4,27.1C138.9,110.7,176.8,123.6,199.2,85.6z"/>
<path class="st1" d="M210.9,280.3c15.6-12.2,27.3-29,32.7-48.1c0.2-0.7,2.4-2,3.9-2.9c2.4-1.5,4.9-2.7,5.4-4.6
	c1-5.6,1.5-11.5,1.5-17.3c0-2.2-2.2-4.4-4.4-6.6c-1.7-1.5-3.4-3.2-3.4-4.4c-2.4-22.2-12.7-43-29-58.1l-1.7,1.7
	c15.9,14.9,26.1,35.1,28.3,56.6c0.2,2,2.2,3.9,4.1,5.9c1.7,1.5,3.7,3.7,3.7,4.6c0,5.6-0.5,11.2-1.5,16.8c-0.2,1-2.4,2-4.1,2.9
	c-2.4,1.2-4.6,2.4-5.1,4.4c-5.9,20.7-19.3,38.8-37.1,50.5c3.2-6.8,13.2-29,18.5-40.3l-1-36.1l-31-30l-17.6,2.4l-19.3,31.2
	c0,0,9,11.5-3.7,24.9c-12.4,13.2-22.2,16.1-22.2,16.1l-9-4.9c2.7-3.4,8.1-8.5,12.2-12c7.1-5.9,14.2-6.3,14.2-12.7
	c0.2-13.2-13.9-9.5-13.9-9.5l-5.1,4.9l-2.2,18.1l-10.7,13.4l-1.2-0.2l-17.6-3.9c0,0,10.7-5.6,12.4-12c1.7-6.1-3.4-26.4-3.7-27.6
	c0.2,0.2,5.1,4.4,7.3,11.2c3.9-10.7,9-21,10.5-22c1.5-1,21.2-11.5,21.2-11.5l-6.6,17.3l4.9-2.7l11.7-28.8c0,0,11.5-5.6,20-5.6
	c15.4-0.2,38.1-19,27.8-52.7c2.9,1.2,53.7,26.6,62.5,76.4C269.3,223.7,247.6,259.6,210.9,280.3z"/>
<path class="st2" d="M152.9,90.9c5.6-6.6,3.4-16.4,3.4-16.4l-16.4,24.2C139.7,98.7,145.8,99,152.9,90.9z"/>
<path class="st2" d="M97.9,223l2-9.8c0,0-8.1,14.2-8.8,16.1c-0.7,2.2,0.5,6.1,3.7,5.9c3.2-0.2,7.1-4.9,7.1-8.3
	C101.8,222.5,97.9,223,97.9,223z"/>
<path class="st2" d="M242.9,67.7c0,0,12.2,0.5,24.9,2c-28.6-22.5-55.6-29-77.6-29c-30.3,0-50.8,12.4-52,13.2l9.5-15.1
	c0,0-38.1-3.7-51.5,36.6c-3.4-8.5-6.6-21-6.6-21s-19.8,17.3-10.5,46.1c-22.7-8.3-55.2-19.8-56.4-20c-1.7-0.2-2.2,0.5-2.2,0.5
	s-0.5,0.7,1,2c2.7,2.2,53.9,40,65.2,47.4c-2.4,8.8-2.4,12.9,0,17.1c3.4,5.6,3.7,8.5,3.2,12.7c-0.5,4.1-4.9,40-5.9,44.4
	c-1,4.4-11.2,20-10.7,24.7c0.5,4.6,6.8,24.4,12.4,26.6c4.1,1.5,14.4,4.6,21.2,4.6c2.4,0,4.6-0.5,5.6-1.5c4.1-3.7,5.4-4.4,8.3-4.4
	c0.2,0,0.5,0,0.7,0c1.2,0,2.7,0.2,4.4,0.2c3.9,0,9-0.7,12.7-4.1c5.4-5.4,14.6-12.7,17.6-16.1c3.7-4.6,5.6-11,4.6-17.3
	c-0.7-5.9,2.4-11,6.1-16.1c4.6-6.1,13.2-17.1,13.2-17.1c16.8,12.7,27.3,32,27.3,53.5c0,38.1-33.2,68.8-74.2,68.8
	c-6.3,0-12.4-0.7-18.5-2.2c18.8,6.6,34.7,8.8,47.6,8.8c27.6,0,42.2-10,42.2-10s-5.1,6.6-13.4,14.2c0.2,0,0.2,0,0.2,0
	c45.6-6.3,67.9-43.9,67.9-43.9s-1.7,12.2-3.9,20.5c60.8-45.6,50.5-102.8,50.3-104.7c0.5,0.7,6.6,8.1,9.8,12
	C325.2,100.2,242.9,67.7,242.9,67.7z M149.4,228.3c-1,1.2-5.1,4.9-8.1,7.6c-2.9,2.7-6.1,5.4-8.5,7.8c-1,1-2.9,1.5-5.9,1.5
	c-1,0-2,0-2.7,0c-0.5,0-1,0-1.5,0c-0.5,0-0.7,0-1,0c-0.7,0-1.5,0-2.2,0c3.7-4.9,14.4-16.1,18.1-18.5c4.4-2.9,6.6-5.9,3.9-11
	c-2.7-5.1-9.8-3.9-9.8-3.9s4.1-1.7,7.8-1.7c-4.6-1.2-10.5,0-13.2,2.7c-2.9,2.7-2.4,12.2-3.7,18.3c-1.2,6.3-5.4,9.5-11.7,15.4
	c-3.4,3.2-5.9,4.1-7.8,4.1c-4.1-0.7-9-2-12.4-3.2c-2.4-3.2-6.1-13.7-7.1-18.1c0.7-2.4,3.7-7.6,5.1-10.5c2.9-5.6,4.6-8.8,5.1-11.7
	c1-4.1,4.1-29.8,5.4-40.5c3.2,4.1,7.6,11,6.6,15.4c7.1-10,2-19.8-0.5-23.7c-2.2-3.9-5.1-11.7-2.7-20s11.2-31.2,11.2-31.2
	s2.9,5.1,7.1,4.1c4.1-1,37.6-51.3,37.6-51.3s9,19.8-0.5,34.2c-9.8,14.4-19.3,17.1-19.3,17.1s13.4,2.4,25.9-6.6
	c5.1,12,10,24.4,10.3,26.1c-0.7,1.7-10.5,25.1-11.5,26.6c-0.5,0.5-3.9,1.5-6.3,2c-4.1,1.2-6.6,2-7.6,2.7
	c-1.7,1.5-9.5,22.9-13.2,33.4c-4.4,1.2-8.8,3.7-12,8.5c1.7-1.2,7.1-2,11-2.4c3.4-0.2,13.9,5.4,16.6,15.9c0,0.2,0,0.2,0,0.5
	C152.6,221.8,151.4,225.4,149.4,228.3z M126.5,231.3c2.2-3.2,2-8.5,2.2-10.3c0.2-1.7,0.7-4.9,2.7-5.4c2-0.5,6.6,0.2,6.6,3.7
	c0,3.2-3.4,3.9-5.9,6.1C130.4,227.1,127,230.8,126.5,231.3z M223.9,184.7c2.4-12.4,2.7-23.2,2-32c9.5,12.7,15.4,28.1,17.1,43.9
	c0.2,2,2.2,3.9,4.1,5.9c1.7,1.5,3.7,3.4,3.7,4.6c0,5.6-0.5,11.2-1.5,16.8c-0.2,0.7-2.4,2-4.1,2.9c-2.4,1.2-4.6,2.4-5.1,4.4
	c-5.4,18.8-16.8,35.4-32.2,47.1C230.5,254.7,241.5,215.7,223.9,184.7z M208.5,280.6c15.9-12.2,28.1-29.3,33.4-48.6
	c0.2-0.7,2.4-2,3.9-2.9c2.4-1.2,4.9-2.7,5.4-4.6c1-5.6,1.5-11.5,1.5-17.3c0-2.2-2.2-4.4-4.4-6.6c-1.2-1.5-3.2-3.2-3.2-4.4
	c-2-17.8-9-34.7-20-48.6c-4.9-29.3-24.4-38.3-24.9-38.6c0.5,0.7,13.2,19,4.4,40.5c-9,21.7-32.2,18.3-34.2,18.5c-2,0-9.5,9.8-19,27.8
	c-1.2-0.5-6.3-1.7-12.2-0.7c4.4-12.2,11-29.5,12.2-31c0.5-0.5,4.1-1.5,6.6-2.2c4.6-1.2,6.8-2,7.6-2.9c0.5-0.7,2.9-6.3,5.4-12.2
	c2.2,0,7.8-0.5,8.3-0.7c0.5-0.5,5.1-12.4,5.1-13.9c0-1.2-9.5-24.9-13.2-33.9c1.7-2,3.4-4.4,5.1-7.1c50,5.4,89.1,47.8,89.1,99.3
	C265.4,230.1,242.2,264.5,208.5,280.6z"/>
<path class="st2" d="M143.6,148.8c4.6-5.4,2.2-15.4-6.3-17.1c2.2-5.1,5.4-15.4,5.4-15.4s-24.9,39.1-27.1,39.8
	c-2.2,0.7-4.4-7.8-4.4-7.8c-4.6,17.8,7.8,20.3,9.3,14.6C127.2,161.2,138.9,153.9,143.6,148.8z"/>
<path class="st3" d="M122.4,158.3l12.7-21.7c0,0,7.3,3.7,3.7,9.5C134.1,152.9,122.4,158.3,122.4,158.3z"/>
<path class="st4" d="M279.3,258.9c-3.7,4.9-7.8,10-12.7,14.9c31.5-60.5,1.5-115.9,0.2-118.1c2.2,2.2,4.4,4.6,6.3,6.8
	C297.4,189.3,300.3,229.6,279.3,258.9z"/>
<path class="st4" d="M308.6,181c-11-29.5-26.6-54.7-61-77.4c-33.2-22-68.8-20.3-70.8-20c-0.2,0-0.5,0-0.5,0c1.2-0.5,2.4-0.7,3.7-1
	c7.6-2.4,17.3-4.4,27.1-5.6c25.9-3.7,52,5.1,69.8,23.9c0.2,0.2,0.2,0.2,0.5,0.5C297.6,122.9,308.1,149.8,308.6,181z"/>
<path class="st4" d="M239.7,60.2c-36.4-6.8-59.8-3.4-76.6,2.9c-0.5-2-2.2-5.9-3.7-9c-5.1,6.1-10.5,13.4-13.9,18.1
	c-9.3,6.3-13.2,12.4-13.2,12.4c5.4-18.3,21-32,40-35.4c5.4-1,11.2-1.5,17.6-1.5C206.8,48,223.6,52.1,239.7,60.2z"/>
<path class="st4" d="M105.3,107c-28.6-1-19-34.2-18.5-36.1C86.7,71.2,88.7,97,105.3,107z"/>
<path class="st4" d="M133.3,47.2c-22,13.2-17.6,44.7-17.6,44.7C94.8,59.9,131.6,48,133.3,47.2z"/>
<path class="st0" d="M97.2,115.8c1.5,1.2,2.9,3.4,1.2,6.6c-1,1.7-2.4,1.5-4.6,0.5c-2.9-1.5-20.5-11.7-36.4-22.2
	c18.1,6.3,36.4,13.2,39.3,14.6C96.7,115.3,97,115.6,97.2,115.8z"/>
</svg>
