<?xml version="1.0" encoding="utf-8"?>
<!-- Generator: Adobe Illustrator 27.6.1, SVG Export Plug-In . SVG Version: 6.00 Build 0)  -->
<svg version="1.1" id="katman_1" xmlns="http://www.w3.org/2000/svg" xmlns:xlink="http://www.w3.org/1999/xlink" x="0px" y="0px"
	 viewBox="0 0 1792.3 636.5" style="enable-background:new 0 0 1792.3 636.5;" xml:space="preserve">
<style type="text/css">
	.st0{fill:#FFFFFF;}
	.st1{fill-rule:evenodd;clip-rule:evenodd;fill:#05A3C9;}
</style>
<path class="st0" d="M1285.4,253.7c-35.4,4.4-61.5,24.5-71.1,54.5c-6.6,20.4-5.8,39.8,2.5,59.5c9.8,23.3,30.9,39.9,58.9,46.2
	c8.1,1.9,29,2,37.4,0.4c32.5-6.4,55.2-26.6,64.6-57.2c2.2-7.3,2.5-9.5,2.5-22.5s-0.3-15.2-2.5-22.5c-9.3-30.2-31.2-50.1-62.5-56.7
	C1308.7,254.1,1290.9,253.1,1285.4,253.7z M1305.2,293.4c11.7,3.1,22.8,10.7,27.9,19.6c7.9,13.4,7.6,31.1-0.6,43.9
	c-14.7,23.1-48.3,26.9-68.5,7.7c-16.8-16-17.4-41.4-1.4-58.7C1273.3,294.5,1290.3,289.6,1305.2,293.4z"/>
<path class="st0" d="M1458.4,253.7c-35.4,4.4-61.5,24.5-71.1,54.5c-6.6,20.4-5.8,39.8,2.5,59.5c9.8,23.3,30.9,39.9,58.9,46.2
	c8.1,1.9,29,2,37.4,0.4c32.5-6.4,55.2-26.6,64.6-57.2c2.2-7.3,2.5-9.5,2.5-22.5s-0.3-15.2-2.5-22.5c-9.3-30.2-31.2-50.1-62.5-56.7
	C1481.7,254.1,1463.9,253.1,1458.4,253.7z M1478.3,293.4c11.8,3.1,22.8,10.7,27.9,19.6c7.9,13.4,7.6,31.1-0.6,43.9
	c-14.7,23.1-48.3,26.9-68.5,7.7c-16.8-16-17.4-41.4-1.4-58.7C1446.3,294.5,1463.3,289.6,1478.3,293.4z"/>
<path class="st0" d="M1691.4,254.2c-20.6,3-36.1,16.2-41.1,35.2c-4.8,17.9-1.4,36.2,8.2,45.1c5.7,5.3,12.5,8.4,31.2,14.4
	c18.1,5.8,22.2,8.3,24.1,14.4c2.1,7-3.1,15.4-11,17.6c-4.3,1.2-12.4,1.2-17.8-0.1c-5.9-1.4-16.5-6.6-21-10.5c-2-1.9-4.3-3.3-4.7-3.3
	s-2.7,3.4-4.9,7.6c-3.1,5.9-4.1,7.2-4.3,5.6l-0.3-2h-24.1h-24v-60.6V257h-19.9h-19.9v77.7v77.7h43.9h43.9v-4.3
	c0-2.3,0.2-4.2,0.4-4.2s3.8,1.7,8,3.6c13,6.1,21.3,7.9,37.4,7.9c15.7,0,23.1-1.4,32.8-6.1c7.7-3.7,18.1-14,21.6-21.2
	c6.9-14.4,7.9-33.8,2.1-46.1c-1-2.3-4.4-6.8-7.6-9.9c-6.8-6.8-14.1-10.5-32.8-16.5c-7.4-2.3-14.8-5.1-16.5-6.1
	c-6-3.7-7.2-11.8-2.5-16.9c8.2-8.8,22.8-8,38,2.1l3,1.9l8.1-15.5c4.3-8.4,7.9-15.5,7.7-15.6c-0.9-0.9-12.2-5.4-18.6-7.4
	C1717.3,253.9,1703.1,252.4,1691.4,254.2z"/>
<path class="st0" d="M573.4,312.6V415h36.2c19.9,0,40.7-0.6,46.1-1.2c44.7-5.5,77.7-32.6,88.3-72.4c3.5-13.2,4.3-36.4,1.8-50.2
	c-5.1-26.8-19-48.4-40.4-63c-9.6-6.6-18.2-10.2-32-14c-10.8-2.9-12.5-2.9-55.5-3.5l-44.4-0.5L573.4,312.6L573.4,312.6z M652.4,252
	c28.1,6,46.8,29.5,46.8,58.9c-0.1,19.5-6.1,36.3-17.3,47.4c-11.1,11.2-27.6,16.6-50.6,16.7h-10.9v-62.3v-62.3h12.1
	C639.1,250.4,648,251.2,652.4,252z"/>
<path class="st0" d="M762.7,312.7V415l86.2-0.1H935l22.2-31.2c12.3-17,22.6-31,22.9-31c0.5,0,10.8,14,23,31.2l22.3,31.2h28
	c15.3,0,27.9-0.4,27.9-0.7c0-0.4-16.5-23.4-36.4-51.1l-36.4-50.4l34.8-48.6c19.2-26.6,35.9-49.5,37-50.8c2.2-2.2,2.2-1.9,2.2,18.6
	v20.8h21.2h21.2V334v81.1h25.3h25.3V334v-81.1l24.7-0.2l24.6-0.4l-13.2-20.8l-13.2-20.8l-86.4-0.1h-86.5l-22.2,31.2
	c-12.3,17-22.6,31-22.9,31.2c-0.4,0-10.7-14-22.9-31.2l-22.3-31.2h-86.1h-86.2v102.1H762.7z M914.8,261.5c19.8,27.4,36,50.4,36,51.1
	c0,0.7-16.2,23.9-36.1,51.5l-36.2,50.2l-0.4-19.6l-0.2-19.6h-34.1h-34.1v-23v-22.9h27.6h27.6v-19.4v-19.4h-27.6h-27.6v-20v-20h34.1
	h34.1V231c0-10.7,0.2-19.4,0.5-19.4C878.7,211.6,895,234.1,914.8,261.5z"/>
<path class="st1" d="M216.4,74.6c-32,16.7-58.3,30.8-58.2,31.4c0,1.5,76.9,40.4,79.6,40.3c1.2,0,10.2-4.2,20-9.2l17.8-9.1l19.4,10
	l19.4,10l31.8-14.3c47.8-21.5,52.8-23.9,52-24.6c-1-1.1-18.2-10.3-64.8-34.8c-22.5-11.8-44.3-23.5-48.5-25.8
	c-4.2-2.4-8.2-4.2-8.9-4.2S248.4,57.9,216.4,74.6z M75.9,147.4l-33.4,17.2v75.6c0,41.6,0.4,75.6,1,75.6c0.5,0,16.9-7.1,36.5-15.8
	l35.5-15.8v-79.7l17.3,9.4c13.4,7.3,26.7,14.5,40.1,21.8l22.8,12.3l10.1-4.6c6.4-2.9,12.7-5.8,19-8.7c4.9-2.3,16.9-7.7,26.7-12
	c9.8-4.3,18.8-8.7,20.1-9.7c1.7-1.3-19.1-12.8-76.9-42.5c-43.6-22.4-80.7-40.6-82.4-40.5C110.6,130.1,94.2,137.9,75.9,147.4z
	 M404.1,152.2c-22.7,10.3-41.3,19.1-41.3,19.6s12.4,7.9,27.5,16.4c15.2,8.5,27.5,15.9,27.5,16.5s-13.4,7.1-29.8,14.4
	c-16.4,7.4-57.8,26.1-92.1,41.6l-114.7,51.9c-28.9,13-54.9,24.8-57.8,26.1c-58.9,26.7-75.2,34.1-77.4,35.4c-2.2,1.3-2.7,8.7-3.1,46
	l-0.5,44.5l29.8,15.2L102,495l41.4-18.7c22.7-10.3,41.4-19.2,41.4-19.9s-4.2-3.4-9.3-6.1c-5.1-2.7-15.7-8.7-23.6-13.3
	c-7.8-4.6-15.6-8.8-17.3-9.4c-1.7-0.6-3.1-1.5-3.1-2.2c0-0.6,18.2-9.3,40.5-19.2c43.2-19.3,76.2-34.2,147.1-66.3
	c31.7-14.3,63.4-28.7,95.2-43c27.9-12.6,60.3-27.3,72-32.7l21.3-9.8l0.5-45l0.5-45L478.4,149c-16.6-8.5-30.9-15.5-31.6-15.5
	C446,133.5,426.8,142,404.1,152.2z M499.6,314.6c-4.5,2.2-13.3,6.3-19.6,9.1s-18.3,8.2-26.6,12l-15.1,6.9l-0.3,39.5
	c-0.2,21.7-1,39.4-1.8,39.3c-1.8-0.3-30.1-14.8-58.6-30.1c-20.6-11-21.9-11.5-26.7-9.1c-2.8,1.4-19.5,8.9-37.1,16.6
	c-17.6,7.8-32.6,14.6-33.3,15.3c-0.7,0.6,34.7,19.8,78.8,42.7l80,41.6l34.2-17.7c18.8-9.7,34.8-18.6,35.5-19.7
	c1.7-2.5,1.5-150.7-0.1-150.5C508.2,310.6,504,312.4,499.6,314.6z M310.2,488.5c-5.9,2.5-11.9,5.1-17.8,7.7
	c-17.9,7.7-14.4,8-35.7-2.6c-14.2-7.1-20.3-9.2-23-8.2c-2,0.8-19.1,8.5-38.1,17.1c-18.9,8.6-35.1,15.7-35.9,15.7
	c-8,0,5.3,7.9,56.3,33.6l59.8,30.2l25.2-12.4c13.8-6.8,41.8-20.5,62-30.4c20.3-9.9,36.6-18.2,36.3-18.6c-0.3-0.3-17.3-9-37.8-19.4
	l-37.2-18.8L310.2,488.5z"/>
</svg>
