<svg xmlns="http://www.w3.org/2000/svg" fill="none" viewBox="0 0 250 250" 
class="icon" role="img" data-testid="WALLET_FLOOZ"><rect width="250" 
height="250" fill="#3C3BFB" rx="40"></rect><path fill="#fff" d="m67.439 
140.242 5.637 17.447a.445.445 0 0 0 .848 0l5.637-17.447a28.966 28.966 0 0 
1 18.681-18.681l17.447-5.637a.446.446 0 0 0 0-.848l-17.447-5.637a28.966 
28.966 0 0 1-18.68-18.681L73.923 73.31a.445.445 0 0 0-.848 0L67.44 
90.758a28.966 28.966 0 0 1-18.681 18.681l-17.447 5.637a.446.446 0 0 0 0 
.848l17.447 5.637a28.994 28.994 0 0 1 18.68 18.681Zm103 0 5.637 
17.447a.446.446 0 0 0 .848 0l5.637-17.447a28.966 28.966 0 0 1 
18.681-18.681l17.447-5.637a.446.446 0 0 0 0-.848l-17.447-5.637a28.966 
28.966 0 0 1-18.681-18.681l-5.637-17.447a.446.446 0 0 0-.848 0l-5.637 
17.447a28.966 28.966 0 0 1-18.681 18.681l-17.447 5.637a.446.446 0 0 0 0 
.848l17.447 5.637a28.994 28.994 0 0 1 18.681 18.681Z"></path></svg>
