<svg fill="none" height="96" viewBox="0 0 84 96" width="84" xmlns="http://www.w3.org/2000/svg"><g fill="#ff007a"><path d="m32.6316 21.8049c-1.0383-.1484-1.0877-.1978-.5933-.2473.9395-.1483 3.115.0495 4.6478.3956 3.5601.8406 6.774 3.0161 10.1857 6.8234l.89 1.0383 1.2855-.1977c5.4884-.8901 11.1251-.1978 15.8224 1.9777 1.2855.5934 3.3128 1.7801 3.56 2.0767.0989.0989.2472.7417.3461 1.3845.3461 2.3239.1978 4.0545-.5439 5.3895-.3955.7416-.3955.9394-.1483 1.5822.1978.4945.7911.8406 1.335.8406 1.1867 0 2.4228-1.8789 3.0161-4.4995l.2473-1.0384.445.4945c2.5217 2.8183 4.4995 6.7245 4.7961 9.4934l.0989.7417-.445-.6428c-.7417-1.1372-1.4339-1.8789-2.3733-2.5217-1.6812-1.1372-3.4612-1.4833-8.1584-1.7306-4.2523-.2472-6.6751-.5933-9.0485-1.3844-4.0544-1.335-6.1311-3.0656-10.9273-9.444-2.1261-2.8183-3.4611-4.3511-4.7961-5.6367-2.9173-2.8184-5.8345-4.3017-9.6418-4.895z"/><path d="m69.4709 28.0845c.0989-1.8789.3461-3.115.89-4.2522.1978-.445.3956-.8406.445-.8406.0495 0-.0494.3461-.1978.7417-.3955 1.0878-.445 2.6205-.1978 4.3511.3462 2.225.4945 2.5217 2.8679 4.9445 1.0877 1.1372 2.3733 2.5711 2.8678 3.1645l.8405 1.0878-.8405-.7912c-1.0384-.9889-3.4117-2.8678-3.9556-3.115-.3461-.1978-.3956-.1978-.6428.0495-.1978.1977-.2472.4944-.2472 1.9283-.0495 2.225-.3462 3.6095-1.0878 5.0434-.3956.7417-.445.5933-.0989-.2472.2472-.6428.2966-.9395.2966-3.0656 0-4.3017-.4944-5.3401-3.5105-7.0706-.7417-.445-2.0273-1.0878-2.7689-1.4339-.7912-.3461-1.3845-.6428-1.3351-.6428.0989-.0989 3.0162.7417 4.1534 1.2361 1.7306.6922 2.0272.7417 2.225.6922.1484-.1483.2473-.5439.2967-1.78z"/><path d="m34.6659 35.4517c-2.0766-2.8678-3.4117-7.3178-3.115-10.6306l.0989-1.0384.4945.0989c.89.1483 2.4228.7417 3.1644 1.1867 1.9778 1.1867 2.8678 2.8183 3.7084 6.8728.2472 1.1867.5933 2.5711.7417 3.0161.2472.7417 1.1866 2.4723 1.9778 3.5601.5438.7911.1977 1.1867-1.0384 1.0878-1.8789-.1978-4.4006-1.9284-6.0323-4.1534z"/><path d="m66.9524 56.96c-9.7901-3.9556-13.2512-7.3673-13.2512-13.1523 0-.8406.0494-1.5328.0494-1.5328.0495 0 .3956.2967.8406.6428 1.9778 1.5822 4.2028 2.2744 10.3834 3.1645 3.6095.5438 5.6862.9394 7.5651 1.5822 5.9828 1.9778 9.6911 6.0323 10.5812 11.5206.2472 1.5823.0988 4.5984-.2967 6.1806-.3461 1.2362-1.335 3.5106-1.5823 3.5601-.0494 0-.1483-.2473-.1483-.6428-.0989-2.0767-1.1372-4.0545-2.8678-5.5873-2.0767-1.78-4.7467-3.115-11.2734-5.7356z"/><path d="m60.0245 58.5923c-.0989-.7417-.3461-1.6811-.4945-2.0767l-.2472-.7417.445.5439c.6428.7417 1.1372 1.6317 1.5822 2.8678.3461.9395.3461 1.2361.3461 2.7689 0 1.4834-.0494 1.8295-.3461 2.67-.4944 1.3351-1.0878 2.2745-2.0767 3.3129-1.78 1.8294-4.1039 2.8183-7.4167 3.2633-.5933.0495-2.2744.1978-3.7578.2967-3.7084.1978-6.1806.5933-8.4056 1.3844-.2967.0989-.5933.1978-.6428.1484-.0989-.0989 1.4339-.9889 2.67-1.5823 1.7306-.8405 3.5106-1.2855 7.4168-1.9778 1.9283-.2966 3.9061-.6922 4.4005-.89 4.8951-1.5328 7.3179-5.34 6.5268-9.9878z"/><path d="m64.5269 66.5533c-1.2856-2.8183-1.5823-5.4883-.89-8.01.0988-.2472.1977-.4945.2966-.4945s.3956.1484.6923.3461c.5933.3956 1.8294 1.0878 4.9939 2.8184 4.005 2.1756 6.2795 3.8567 7.8617 5.785 1.3845 1.6812 2.225 3.6095 2.6206 5.9829.2472 1.335.0989 4.5489-.2472 5.8839-1.0878 4.2028-3.5601 7.5651-7.1695 9.4934-.5439.2967-.9889.4945-1.0384.4945-.0494 0 .1484-.4945.445-1.0878 1.1867-2.5217 1.335-4.9445.445-7.664-.5439-1.6811-1.6811-3.7083-3.9556-7.12-2.7194-3.9556-3.3622-4.994-4.0544-6.4279z"/><path d="m27.6907 81.6835c3.6589-3.0656 8.1584-5.2411 12.3117-5.9334 1.7801-.2966 4.7468-.1977 6.3784.2473 2.6206.6922 4.994 2.1755 6.2301 4.005 1.1867 1.78 1.7306 3.3128 2.2744 6.7245.1978 1.335.445 2.7195.4945 3.0161.3956 1.7801 1.1867 3.1645 2.1756 3.9062 1.5328 1.1372 4.2028 1.1867 6.8234.1978.445-.1484.8405-.2967.8405-.2473.0989.0989-1.2361.9889-2.1261 1.4339-1.2361.6428-2.225.8406-3.56.8406-2.3734 0-4.4006-1.2361-6.0323-3.7084-.3461-.4944-1.0384-1.9283-1.6317-3.2633-1.7306-4.0051-2.6206-5.1917-4.6478-6.5267-1.78-1.1373-4.0545-1.3845-5.785-.5439-2.2745 1.0878-2.8679 4.005-1.2856 5.785.6428.7417 1.8294 1.335 2.8183 1.4834 1.8295.2472 3.4117-1.1867 3.4117-3.0162 0-1.1867-.445-1.8789-1.6316-2.4228-1.5823-.6922-3.3129.0989-3.2634 1.6317 0 .6428.2967 1.0383.9394 1.335.3956.1978.3956.1978.0989.1483-1.4339-.2966-1.78-2.0766-.6427-3.2139 1.3844-1.3844 4.3017-.7911 5.2906 1.1373.3955.7911.445 2.3733.0988 3.3622-.8405 2.1756-3.2139 3.3128-5.6367 2.67-1.6317-.445-2.3239-.89-4.3017-2.9172-3.4611-3.56-4.7961-4.2523-9.7406-4.9939l-.9395-.1484z"/><g clip-rule="evenodd" fill-rule="evenodd"><path d="m1.68332 2.12613c11.52068 13.99287 29.27138 35.74857 30.16138 36.93527.7416.9889.445 1.9284-.7911 2.6206-.6923.3956-2.1262.7911-2.8184.7911-.7911 0-1.7306-.3955-2.3734-1.0383-.445-.445-2.3733-3.2634-6.7245-10.0373-3.3128-5.1917-6.1311-9.4934-6.1806-9.5429-.1977-.0989-.1977-.0989 5.8345 10.6801 3.8073 6.7739 5.0434 9.1967 5.0434 9.4934 0 .6428-.1978.9889-.9889 1.8789-1.335 1.4834-1.9283 3.1645-2.3733 6.6751-.4945 3.9061-1.8295 6.675-5.6368 11.3723-2.225 2.7689-2.5711 3.2633-3.115 4.4006-.6922 1.3844-.89 2.1755-.9889 3.9556-.0989 1.8789.0989 3.0655.6428 4.8455.4945 1.5823 1.0384 2.6206 2.3734 4.6479 1.1372 1.78 1.8294 3.115 1.8294 3.6094 0 .3956.0989.3956 1.8789 0 4.2523-.9889 7.7629-2.67 9.6912-4.7467 1.1867-1.2855 1.4834-1.9778 1.4834-3.7578 0-1.1372-.0495-1.3844-.3462-2.0767-.4944-1.0877-1.4339-1.9778-3.4611-3.3622-2.67-1.8295-3.8072-3.3128-4.1039-5.2906-.2472-1.6811.0494-2.8184 1.5328-5.9334 1.5328-3.2139 1.9283-4.5489 2.1755-7.8123.1484-2.0767.3956-2.9172.9889-3.56.6428-.6922 1.1867-.9394 2.7195-1.1372 2.5217-.3461 4.1534-.9889 5.4389-2.225 1.1373-1.0384 1.6317-2.0767 1.6812-3.6095l.0494-1.1372-.6428-.6923c-2.3239-2.67-34.512466-38.0725-34.66080067-38.0725-.04944483 0 .74167267.939452 1.68112067 2.12613zm15.17958 70.31057c.5439-.9395.2472-2.1261-.6428-2.7195-.8406-.5439-2.1261-.2967-2.1261.445 0 .1978.0989.3956.3955.4945.445.2472.4945.4944.1484 1.0383s-.3461 1.0384.0989 1.3845c.6922.5439 1.6316.2472 2.1261-.6428z"/><path d="m36.8822 46.4285c-1.1867.3461-2.324 1.6317-2.6701 2.9172-.1977.7911-.0989 2.225.2473 2.67.5438.6923 1.0383.8901 2.4228.8901 2.7194 0 5.0433-1.1867 5.2906-2.6206.2472-1.1867-.7912-2.8184-2.2251-3.56-.7416-.3956-2.2744-.5439-3.0655-.2967zm3.1644 2.4722c.3956-.5933.2472-1.2361-.4944-1.6811-1.335-.8406-3.3623-.1483-3.3623 1.1372 0 .6428 1.0384 1.335 2.0273 1.335.6427 0 1.5328-.3955 1.8294-.7911z"/></g></g></svg>